HIERARCHY
ROOT hip
{
	OFFSET 0.000000 0.000000 0.000000 
	CHANNELS 6 Xposition Yposition Zposition Xrotation Zrotation Yrotation
	JOINT abdomen
	{
		OFFSET 0.000000 3.402643 0.000000 
		CHANNELS 3 Xrotation Zrotation Yrotation
		JOINT chest
		{
			OFFSET 0.000000 8.438565 -0.680529 
			CHANNELS 3 Xrotation Zrotation Yrotation
			JOINT neck
			{
				OFFSET 0.000000 10.207942 -0.272212 
				CHANNELS 3 Xrotation Zrotation Yrotation
				JOINT head
				{
					OFFSET 0.000000 3.130431 0.000000 
					CHANNELS 3 Xrotation Zrotation Yrotation
					End Site
					{
						OFFSET 0.000000 3.130435 0.000000 
					}
				}
			}
			JOINT lCollar
			{
				OFFSET 3.470700 6.669187 -0.816635 
				CHANNELS 3 Yrotation Zrotation Xrotation
				JOINT lShldr
				{
					OFFSET 3.198488 0.000000 0.000000 
					CHANNELS 3 Zrotation Yrotation Xrotation
					JOINT lForeArm
					{
						OFFSET 10.139888 0.000000 0.000000 
						CHANNELS 3 Yrotation Zrotation Xrotation
						JOINT lHand
						{
							OFFSET 8.370511 0.000000 0.000000 
							CHANNELS 3 Zrotation Yrotation Xrotation
							End Site
							{
								OFFSET 4.083176 0.000000 0.000000 
							}
						}
					}
				}
			}
			JOINT rCollar
			{
				OFFSET -3.470700 6.669187 -0.816635 
				CHANNELS 3 Yrotation Zrotation Xrotation
				JOINT rShldr
				{
					OFFSET -3.198488 0.000000 0.000000 
					CHANNELS 3 Zrotation Yrotation Xrotation
					JOINT rForeArm
					{
						OFFSET -10.139888 0.000000 0.000000 
						CHANNELS 3 Yrotation Zrotation Xrotation
						JOINT rHand
						{
							OFFSET -8.370511 0.000000 0.000000 
							CHANNELS 3 Zrotation Yrotation Xrotation
							End Site
							{
								OFFSET -4.083176 0.000000 0.000000 
							}
						}
					}
				}
			}
		}
	}
	JOINT lThigh
	{
		OFFSET 5.308129 -1.633274 1.361059 
		CHANNELS 3 Xrotation Zrotation Yrotation
		JOINT lShin
		{
			OFFSET -2.041588 -20.007561 0.000000 
			CHANNELS 3 Xrotation Zrotation Yrotation
			JOINT lFoot
			{
				OFFSET 0.000000 -19.190928 -1.224953 
				CHANNELS 3 Xrotation Yrotation Zrotation
				End Site
				{
					OFFSET 0.000000 -2.449906 4.627600 
				}
			}
		}
	}
	JOINT rThigh
	{
		OFFSET -5.308129 -1.633274 1.361059 
		CHANNELS 3 Xrotation Zrotation Yrotation
		JOINT rShin
		{
			OFFSET 2.041588 -20.007561 0.000000 
			CHANNELS 3 Xrotation Zrotation Yrotation
			JOINT rFoot
			{
				OFFSET 0.000000 -19.190928 -1.224953 
				CHANNELS 3 Xrotation Yrotation Zrotation
				End Site
				{
					OFFSET 0.000000 -2.449906 4.627600 
				}
			}
		}
	}
}
MOTION
Frames: 8
Frame Time: 0.011111
44.171341 80.442055 153.992844 175.302139 173.449005 0.550504 60.234898 0.435166 1.624888 -21.517904 6.611126 -1.851795 -34.767357 -14.312035 -4.663509 -25.441811 21.549112 -11.009551 2.971642 -4.490881 1.927035 -46.841953 -96.155807 21.029560 -53.508892 8.417976 9.586039 8.524705 12.647240 -75.384171 -4.704987 0.510038 2.448925 16.542936 93.194756 5.142900 81.577759 -5.654015 23.508490 -8.534408 -12.637552 36.829937 -26.643629 17.534313 2.388332 37.762596 -4.826263 -5.833725 -35.709667 -8.782996 -6.939043 -20.575422 6.270036 0.343871 33.892948 5.091672 5.330490 -38.989105 -18.564564 -11.478828 
44.090889 80.525040 153.770325 175.255096 173.574646 1.036569 59.833748 0.834958 1.513236 -21.409739 6.612118 -1.907739 -35.422630 -14.066919 -4.530324 -24.051775 21.049623 -10.616554 2.971642 -4.490881 1.927035 -47.113152 -95.973778 21.449749 -53.150558 8.351430 9.437888 8.524705 12.647240 -75.452522 -4.704987 0.510038 2.448925 18.277969 93.278992 6.936745 82.926155 -4.777603 24.503576 -8.534408 -12.637552 37.513531 -26.551180 17.225527 2.257044 37.792202 -4.825920 -5.836029 -35.522152 -9.098782 -7.167965 -20.489824 5.885987 -0.026336 34.090595 5.086062 5.365624 -38.536758 -18.672121 -11.251437 
44.105343 80.575630 153.532120 175.589401 173.791656 -0.144226 59.844662 -0.577531 1.762250 -21.271883 7.074836 -1.633838 -35.309513 -13.655044 -4.651232 -23.812704 20.192465 -10.425713 2.971642 -4.490881 1.927035 -47.524536 -95.878021 22.025518 -52.729759 8.273008 9.269475 8.524705 12.647240 -75.628311 -4.704987 0.510038 2.448925 22.329172 93.597992 11.148066 83.944473 -3.969320 25.380657 -8.534408 -12.637552 38.343609 -25.425632 17.555506 3.469212 37.920910 -4.816233 -5.854611 -35.588017 -9.374334 -7.385239 -19.782894 6.170949 0.969311 34.249977 5.075630 5.377250 -38.111744 -18.197985 -10.800151 
43.997864 80.660164 153.321548 175.639786 173.845642 0.697611 59.552639 0.266454 1.682277 -21.203053 6.955207 -1.758255 -34.966385 -13.198140 -4.823992 -24.047495 19.191761 -10.191597 2.971642 -4.490881 1.927035 -47.181808 -95.427963 22.087034 -52.645763 8.256383 9.227659 8.524705 12.647240 -75.559944 -4.704987 0.510038 2.448925 26.846031 94.122070 15.268699 84.753654 -3.186696 26.225040 -8.534408 -12.637552 37.826031 -25.380037 17.059984 2.715830 38.040096 -4.806488 -5.861791 -35.401760 -9.268644 -7.300100 -19.604792 5.711996 0.336044 34.419125 5.060558 5.407036 -38.199242 -17.796633 -10.662263 
43.972095 80.712967 153.097473 175.805115 173.730392 0.041041 59.415680 -0.213871 2.116238 -21.144091 7.040319 -1.587686 -34.992889 -12.827168 -4.882811 -23.832787 18.429956 -9.914769 2.971642 -4.490881 1.927035 -46.109444 -94.819740 21.515707 -52.708286 8.265599 9.250648 8.524705 12.647240 -75.257210 -4.704987 0.510038 2.448925 30.677357 94.802147 18.929050 85.343025 -2.499721 27.046221 -8.534408 -12.637552 38.060402 -24.780926 17.428383 3.360704 38.197655 -4.806430 -5.875506 -35.532871 -9.128130 -7.204491 -19.114368 6.042882 0.690646 34.577667 5.050949 5.437508 -37.856014 -17.577911 -10.371396 
43.950413 80.740303 152.869949 176.100784 173.867401 -0.788843 59.479717 0.081328 -0.862008 -20.651556 7.281809 2.023825 -35.248497 -12.534850 -4.856860 -23.074055 17.818796 -9.631074 2.971642 -4.490881 1.927035 -45.410263 -94.482201 21.293736 -52.550846 8.236479 9.187675 8.524705 12.647240 -74.866592 -4.704987 0.510038 2.448925 33.843971 95.684120 22.001705 85.740440 -1.947527 27.817547 -8.534408 -12.637552 38.607281 -23.860334 17.582243 4.276660 38.317162 -4.793204 -5.881561 -35.785015 -9.107430 -7.197174 -18.537968 6.140191 1.150608 34.795742 5.041279 5.464301 -37.277954 -17.654993 -10.095206 
43.819672 80.804108 152.673843 175.888062 174.272415 0.411403 58.766060 -0.037105 1.773800 -20.849035 7.007492 -1.617869 -35.295006 -12.055745 -4.823609 -22.747990 16.978697 -9.110926 2.971642 -4.490881 1.927035 -44.542503 -94.136200 20.739874 -52.351425 8.198251 9.103499 8.524705 12.647240 -74.671272 -4.704987 0.510038 2.448925 36.158939 96.769890 23.715878 85.982330 -1.556169 28.513697 -8.534408 -12.637552 37.699074 -24.107845 16.598982 3.437928 38.376869 -4.787064 -5.884709 -35.576790 -9.306746 -7.329970 -18.825308 5.165820 0.188469 35.015026 5.021448 5.487108 -37.134907 -17.917219 -10.146675 
43.813072 80.828926 152.498489 176.107208 174.829163 -0.536803 58.975574 -0.292027 -1.500294 -20.651192 7.474151 1.892437 -35.157486 -11.396690 -4.865946 -22.825632 15.956189 -8.463033 2.971642 -4.490881 1.927035 -42.145378 -93.531860 18.587156 -52.394531 8.212801 9.132616 8.524705 12.647240 -74.466202 -4.704987 0.510038 2.448925 37.571095 98.059166 24.932055 86.126595 -1.332582 29.166613 -8.534408 -12.637552 38.118999 -23.112679 16.365198 4.526964 38.424797 -4.793232 -5.910378 -35.586018 -9.350770 -7.354602 -18.458351 4.909024 0.973503 35.233463 5.007857 5.511845 -37.172264 -17.847513 -10.134033 
